<mxfile host="app.diagrams.net" modified="2023-03-28T13:35:00.776Z" agent="Mozilla/5.0 (Windows NT 10.0; Win64; x64) AppleWebKit/537.36 (KHTML, like Gecko) Chrome/111.0.0.0 Safari/537.36" etag="qmRET3-SS_DvZpShGMCG" version="21.1.1" type="device">
  <diagram name="페이지-1" id="3MIh7c14-3M-HPNPaUDe">
    <mxGraphModel dx="859" dy="1865" grid="1" gridSize="10" guides="1" tooltips="1" connect="1" arrows="1" fold="1" page="1" pageScale="1" pageWidth="827" pageHeight="1169" math="0" shadow="0">
      <root>
        <mxCell id="0" />
        <mxCell id="1" parent="0" />
        <mxCell id="zOI9WWHMZoX-61sYecG0-23" style="edgeStyle=orthogonalEdgeStyle;rounded=0;sketch=1;hachureGap=4;jiggle=2;curveFitting=1;orthogonalLoop=1;jettySize=auto;html=1;exitX=0.5;exitY=1;exitDx=0;exitDy=0;exitPerimeter=0;entryX=0.5;entryY=0.05;entryDx=0;entryDy=0;entryPerimeter=0;fontFamily=Architects Daughter;fontSource=https%3A%2F%2Ffonts.googleapis.com%2Fcss%3Ffamily%3DArchitects%2BDaughter;fontSize=16;" edge="1" parent="1" source="zOI9WWHMZoX-61sYecG0-1" target="zOI9WWHMZoX-61sYecG0-2">
          <mxGeometry relative="1" as="geometry" />
        </mxCell>
        <mxCell id="zOI9WWHMZoX-61sYecG0-1" value="&lt;font style=&quot;font-size: 14px;&quot;&gt;클라이언트&lt;/font&gt;" style="fontColor=#0066CC;verticalAlign=top;verticalLabelPosition=bottom;labelPosition=center;align=center;html=1;outlineConnect=0;fillColor=#CCCCCC;strokeColor=#6881B3;gradientColor=none;gradientDirection=north;strokeWidth=2;shape=mxgraph.networks.virtual_pc;sketch=1;hachureGap=4;jiggle=2;curveFitting=1;fontFamily=Architects Daughter;fontSource=https%3A%2F%2Ffonts.googleapis.com%2Fcss%3Ffamily%3DArchitects%2BDaughter;fontSize=20;" vertex="1" parent="1">
          <mxGeometry x="300" y="100" width="90" height="50" as="geometry" />
        </mxCell>
        <mxCell id="zOI9WWHMZoX-61sYecG0-24" style="edgeStyle=orthogonalEdgeStyle;rounded=0;sketch=1;hachureGap=4;jiggle=2;curveFitting=1;orthogonalLoop=1;jettySize=auto;html=1;fontFamily=Architects Daughter;fontSource=https%3A%2F%2Ffonts.googleapis.com%2Fcss%3Ffamily%3DArchitects%2BDaughter;fontSize=16;exitX=0.5;exitY=0.95;exitDx=0;exitDy=0;exitPerimeter=0;" edge="1" parent="1" source="zOI9WWHMZoX-61sYecG0-2" target="zOI9WWHMZoX-61sYecG0-3">
          <mxGeometry relative="1" as="geometry">
            <Array as="points">
              <mxPoint x="414" y="310" />
              <mxPoint x="210" y="310" />
            </Array>
          </mxGeometry>
        </mxCell>
        <mxCell id="zOI9WWHMZoX-61sYecG0-25" style="edgeStyle=orthogonalEdgeStyle;rounded=0;sketch=1;hachureGap=4;jiggle=2;curveFitting=1;orthogonalLoop=1;jettySize=auto;html=1;entryX=0.5;entryY=0;entryDx=0;entryDy=0;fontFamily=Architects Daughter;fontSource=https%3A%2F%2Ffonts.googleapis.com%2Fcss%3Ffamily%3DArchitects%2BDaughter;fontSize=16;" edge="1" parent="1" source="zOI9WWHMZoX-61sYecG0-2" target="zOI9WWHMZoX-61sYecG0-26">
          <mxGeometry relative="1" as="geometry">
            <mxPoint x="590" y="340" as="targetPoint" />
          </mxGeometry>
        </mxCell>
        <mxCell id="zOI9WWHMZoX-61sYecG0-2" value="&lt;font style=&quot;font-size: 14px;&quot;&gt;중개 서버&lt;/font&gt;" style="fontColor=#0066CC;verticalAlign=top;verticalLabelPosition=bottom;labelPosition=center;align=center;html=1;outlineConnect=0;fillColor=#CCCCCC;strokeColor=#6881B3;gradientColor=none;gradientDirection=north;strokeWidth=2;shape=mxgraph.networks.mainframe;sketch=1;hachureGap=4;jiggle=2;curveFitting=1;fontFamily=Architects Daughter;fontSource=https%3A%2F%2Ffonts.googleapis.com%2Fcss%3Ffamily%3DArchitects%2BDaughter;fontSize=20;" vertex="1" parent="1">
          <mxGeometry x="307" y="210" width="76" height="70" as="geometry" />
        </mxCell>
        <mxCell id="zOI9WWHMZoX-61sYecG0-3" value="주 시스템" style="swimlane;startSize=20;horizontal=1;containerType=tree;sketch=1;hachureGap=4;jiggle=2;curveFitting=1;fontFamily=Architects Daughter;fontSource=https%3A%2F%2Ffonts.googleapis.com%2Fcss%3Ffamily%3DArchitects%2BDaughter;fontSize=20;fillColor=#dae8fc;strokeColor=#6c8ebf;" vertex="1" parent="1">
          <mxGeometry x="60" y="340" width="260" height="320" as="geometry" />
        </mxCell>
        <mxCell id="zOI9WWHMZoX-61sYecG0-15" style="edgeStyle=orthogonalEdgeStyle;rounded=0;sketch=1;hachureGap=4;jiggle=2;curveFitting=1;orthogonalLoop=1;jettySize=auto;html=1;exitX=0.5;exitY=0.94;exitDx=0;exitDy=0;exitPerimeter=0;entryX=0.5;entryY=0;entryDx=0;entryDy=0;entryPerimeter=0;fontFamily=Architects Daughter;fontSource=https%3A%2F%2Ffonts.googleapis.com%2Fcss%3Ffamily%3DArchitects%2BDaughter;fontSize=16;" edge="1" parent="zOI9WWHMZoX-61sYecG0-3" source="zOI9WWHMZoX-61sYecG0-11" target="zOI9WWHMZoX-61sYecG0-13">
          <mxGeometry relative="1" as="geometry" />
        </mxCell>
        <mxCell id="zOI9WWHMZoX-61sYecG0-11" value="&lt;font style=&quot;font-size: 14px;&quot;&gt;웹서버&lt;/font&gt;" style="fontColor=#0066CC;verticalAlign=middle;verticalLabelPosition=middle;labelPosition=left;align=right;html=1;outlineConnect=0;fillColor=#CCCCCC;strokeColor=#6881B3;gradientColor=none;gradientDirection=north;strokeWidth=2;shape=mxgraph.networks.web_server;sketch=1;hachureGap=4;jiggle=2;curveFitting=1;fontFamily=Architects Daughter;fontSource=https%3A%2F%2Ffonts.googleapis.com%2Fcss%3Ffamily%3DArchitects%2BDaughter;fontSize=20;" vertex="1" parent="zOI9WWHMZoX-61sYecG0-3">
          <mxGeometry x="87.5" y="35" width="92.5" height="70" as="geometry" />
        </mxCell>
        <mxCell id="zOI9WWHMZoX-61sYecG0-12" value="DB" style="fontColor=#0066CC;verticalAlign=middle;verticalLabelPosition=middle;labelPosition=left;align=right;html=1;outlineConnect=0;fillColor=#CCCCCC;strokeColor=#6881B3;gradientColor=none;gradientDirection=north;strokeWidth=2;shape=mxgraph.networks.storage;sketch=1;hachureGap=4;jiggle=2;curveFitting=1;fontFamily=Architects Daughter;fontSource=https%3A%2F%2Ffonts.googleapis.com%2Fcss%3Ffamily%3DArchitects%2BDaughter;fontSize=20;" vertex="1" parent="zOI9WWHMZoX-61sYecG0-3">
          <mxGeometry x="80" y="245" width="100" height="70" as="geometry" />
        </mxCell>
        <mxCell id="zOI9WWHMZoX-61sYecG0-16" style="edgeStyle=orthogonalEdgeStyle;rounded=0;sketch=1;hachureGap=4;jiggle=2;curveFitting=1;orthogonalLoop=1;jettySize=auto;html=1;exitX=0.5;exitY=0.94;exitDx=0;exitDy=0;exitPerimeter=0;entryX=0.5;entryY=0;entryDx=0;entryDy=0;entryPerimeter=0;fontFamily=Architects Daughter;fontSource=https%3A%2F%2Ffonts.googleapis.com%2Fcss%3Ffamily%3DArchitects%2BDaughter;fontSize=16;" edge="1" parent="zOI9WWHMZoX-61sYecG0-3" source="zOI9WWHMZoX-61sYecG0-13" target="zOI9WWHMZoX-61sYecG0-12">
          <mxGeometry relative="1" as="geometry" />
        </mxCell>
        <mxCell id="zOI9WWHMZoX-61sYecG0-13" value="&lt;font style=&quot;font-size: 14px;&quot;&gt;어플리케이션 서버 시스템&lt;/font&gt;" style="fontColor=#0066CC;verticalAlign=middle;verticalLabelPosition=middle;labelPosition=center;align=center;html=1;outlineConnect=0;fillColor=#CCCCCC;strokeColor=#6881B3;gradientColor=none;gradientDirection=north;strokeWidth=2;shape=mxgraph.networks.mail_server;sketch=1;hachureGap=4;jiggle=2;curveFitting=1;fontFamily=Architects Daughter;fontSource=https%3A%2F%2Ffonts.googleapis.com%2Fcss%3Ffamily%3DArchitects%2BDaughter;fontSize=20;" vertex="1" parent="zOI9WWHMZoX-61sYecG0-3">
          <mxGeometry x="83.75" y="135" width="92.5" height="80" as="geometry" />
        </mxCell>
        <mxCell id="zOI9WWHMZoX-61sYecG0-26" value="보조 시스템" style="swimlane;startSize=20;horizontal=1;containerType=tree;sketch=1;hachureGap=4;jiggle=2;curveFitting=1;fontFamily=Architects Daughter;fontSource=https%3A%2F%2Ffonts.googleapis.com%2Fcss%3Ffamily%3DArchitects%2BDaughter;fontSize=20;fillColor=#dae8fc;strokeColor=#6c8ebf;" vertex="1" parent="1">
          <mxGeometry x="369" y="340" width="260" height="320" as="geometry" />
        </mxCell>
        <mxCell id="zOI9WWHMZoX-61sYecG0-27" style="edgeStyle=orthogonalEdgeStyle;rounded=0;sketch=1;hachureGap=4;jiggle=2;curveFitting=1;orthogonalLoop=1;jettySize=auto;html=1;exitX=0.5;exitY=0.94;exitDx=0;exitDy=0;exitPerimeter=0;entryX=0.5;entryY=0;entryDx=0;entryDy=0;entryPerimeter=0;fontFamily=Architects Daughter;fontSource=https%3A%2F%2Ffonts.googleapis.com%2Fcss%3Ffamily%3DArchitects%2BDaughter;fontSize=16;" edge="1" parent="zOI9WWHMZoX-61sYecG0-26" source="zOI9WWHMZoX-61sYecG0-28" target="zOI9WWHMZoX-61sYecG0-31">
          <mxGeometry relative="1" as="geometry" />
        </mxCell>
        <mxCell id="zOI9WWHMZoX-61sYecG0-28" value="&lt;font style=&quot;font-size: 14px;&quot;&gt;웹서버&lt;/font&gt;" style="fontColor=#0066CC;verticalAlign=middle;verticalLabelPosition=middle;labelPosition=left;align=right;html=1;outlineConnect=0;fillColor=#CCCCCC;strokeColor=#6881B3;gradientColor=none;gradientDirection=north;strokeWidth=2;shape=mxgraph.networks.web_server;sketch=1;hachureGap=4;jiggle=2;curveFitting=1;fontFamily=Architects Daughter;fontSource=https%3A%2F%2Ffonts.googleapis.com%2Fcss%3Ffamily%3DArchitects%2BDaughter;fontSize=20;" vertex="1" parent="zOI9WWHMZoX-61sYecG0-26">
          <mxGeometry x="87.5" y="35" width="92.5" height="70" as="geometry" />
        </mxCell>
        <mxCell id="zOI9WWHMZoX-61sYecG0-29" value="DB" style="fontColor=#0066CC;verticalAlign=middle;verticalLabelPosition=middle;labelPosition=left;align=right;html=1;outlineConnect=0;fillColor=#CCCCCC;strokeColor=#6881B3;gradientColor=none;gradientDirection=north;strokeWidth=2;shape=mxgraph.networks.storage;sketch=1;hachureGap=4;jiggle=2;curveFitting=1;fontFamily=Architects Daughter;fontSource=https%3A%2F%2Ffonts.googleapis.com%2Fcss%3Ffamily%3DArchitects%2BDaughter;fontSize=20;" vertex="1" parent="zOI9WWHMZoX-61sYecG0-26">
          <mxGeometry x="80" y="245" width="100" height="70" as="geometry" />
        </mxCell>
        <mxCell id="zOI9WWHMZoX-61sYecG0-30" style="edgeStyle=orthogonalEdgeStyle;rounded=0;sketch=1;hachureGap=4;jiggle=2;curveFitting=1;orthogonalLoop=1;jettySize=auto;html=1;exitX=0.5;exitY=0.94;exitDx=0;exitDy=0;exitPerimeter=0;entryX=0.5;entryY=0;entryDx=0;entryDy=0;entryPerimeter=0;fontFamily=Architects Daughter;fontSource=https%3A%2F%2Ffonts.googleapis.com%2Fcss%3Ffamily%3DArchitects%2BDaughter;fontSize=16;" edge="1" parent="zOI9WWHMZoX-61sYecG0-26" source="zOI9WWHMZoX-61sYecG0-31" target="zOI9WWHMZoX-61sYecG0-29">
          <mxGeometry relative="1" as="geometry" />
        </mxCell>
        <mxCell id="zOI9WWHMZoX-61sYecG0-31" value="&lt;font style=&quot;font-size: 14px;&quot;&gt;어플리케이션 서버 시스템&lt;/font&gt;" style="fontColor=#0066CC;verticalAlign=middle;verticalLabelPosition=middle;labelPosition=center;align=center;html=1;outlineConnect=0;fillColor=#CCCCCC;strokeColor=#6881B3;gradientColor=none;gradientDirection=north;strokeWidth=2;shape=mxgraph.networks.mail_server;sketch=1;hachureGap=4;jiggle=2;curveFitting=1;fontFamily=Architects Daughter;fontSource=https%3A%2F%2Ffonts.googleapis.com%2Fcss%3Ffamily%3DArchitects%2BDaughter;fontSize=20;" vertex="1" parent="zOI9WWHMZoX-61sYecG0-26">
          <mxGeometry x="83.75" y="135" width="92.5" height="80" as="geometry" />
        </mxCell>
        <mxCell id="zOI9WWHMZoX-61sYecG0-37" value="" style="group" vertex="1" connectable="0" parent="1">
          <mxGeometry x="627" y="80" width="200" height="110" as="geometry" />
        </mxCell>
        <mxCell id="zOI9WWHMZoX-61sYecG0-35" value="" style="text;html=1;strokeColor=#d6b656;fillColor=#fff2cc;align=center;verticalAlign=middle;whiteSpace=wrap;overflow=hidden;fontSize=20;fontFamily=Architects Daughter;" vertex="1" parent="zOI9WWHMZoX-61sYecG0-37">
          <mxGeometry x="20" y="10" width="170" height="100" as="geometry" />
        </mxCell>
        <UserObject label="&lt;ul&gt;&lt;li&gt;&lt;font style=&quot;font-size: 13px;&quot;&gt;기종 : 펜티엄4이상&lt;/font&gt;&lt;/li&gt;&lt;li&gt;&lt;font style=&quot;font-size: 13px;&quot;&gt;운영체제 : Win xp 이상&lt;/font&gt;&lt;/li&gt;&lt;li&gt;&lt;font style=&quot;font-size: 13px;&quot;&gt;웹브라우저 : IE 6.0 이상&lt;/font&gt;&lt;/li&gt;&lt;/ul&gt;" placeholders="1" name="Variable" id="zOI9WWHMZoX-61sYecG0-32">
          <mxCell style="text;html=1;strokeColor=none;fillColor=none;align=left;verticalAlign=middle;whiteSpace=wrap;overflow=hidden;fontSize=20;fontFamily=Architects Daughter;" vertex="1" parent="zOI9WWHMZoX-61sYecG0-37">
            <mxGeometry width="200" height="100" as="geometry" />
          </mxCell>
        </UserObject>
        <mxCell id="zOI9WWHMZoX-61sYecG0-38" value="" style="group" vertex="1" connectable="0" parent="1">
          <mxGeometry x="627" y="200" width="200" height="110" as="geometry" />
        </mxCell>
        <mxCell id="zOI9WWHMZoX-61sYecG0-39" value="" style="text;html=1;strokeColor=#d6b656;fillColor=#fff2cc;align=center;verticalAlign=middle;whiteSpace=wrap;overflow=hidden;fontSize=20;fontFamily=Architects Daughter;" vertex="1" parent="zOI9WWHMZoX-61sYecG0-38">
          <mxGeometry x="20" y="10" width="170" height="100" as="geometry" />
        </mxCell>
        <UserObject label="&lt;ul&gt;&lt;li&gt;&lt;font style=&quot;font-size: 13px;&quot;&gt;기종 : IBM 7028-6C4&lt;/font&gt;&lt;/li&gt;&lt;li&gt;&lt;font style=&quot;font-size: 13px;&quot;&gt;운영체제 : IBM AIX 6.1&amp;nbsp;&lt;/font&gt;&lt;/li&gt;&lt;li&gt;&lt;font style=&quot;font-size: 13px;&quot;&gt;CPU : 4.2Ghz, MEM : 8G&lt;/font&gt;&lt;/li&gt;&lt;/ul&gt;" placeholders="1" name="Variable" id="zOI9WWHMZoX-61sYecG0-40">
          <mxCell style="text;html=1;strokeColor=none;fillColor=none;align=left;verticalAlign=middle;whiteSpace=wrap;overflow=hidden;fontSize=20;fontFamily=Architects Daughter;" vertex="1" parent="zOI9WWHMZoX-61sYecG0-38">
            <mxGeometry width="200" height="100" as="geometry" />
          </mxCell>
        </UserObject>
        <mxCell id="zOI9WWHMZoX-61sYecG0-41" value="" style="group" vertex="1" connectable="0" parent="1">
          <mxGeometry x="627" y="320" width="200" height="110" as="geometry" />
        </mxCell>
        <mxCell id="zOI9WWHMZoX-61sYecG0-42" value="" style="text;html=1;strokeColor=#d6b656;fillColor=#fff2cc;align=center;verticalAlign=middle;whiteSpace=wrap;overflow=hidden;fontSize=20;fontFamily=Architects Daughter;" vertex="1" parent="zOI9WWHMZoX-61sYecG0-41">
          <mxGeometry x="20" y="10" width="170" height="100" as="geometry" />
        </mxCell>
        <UserObject label="&lt;ul&gt;&lt;li style=&quot;border-color: var(--border-color);&quot;&gt;&lt;font style=&quot;border-color: var(--border-color); font-size: 13px;&quot;&gt;기종 : IBM 7028-6C4&lt;/font&gt;&lt;/li&gt;&lt;li style=&quot;border-color: var(--border-color);&quot;&gt;&lt;font style=&quot;border-color: var(--border-color); font-size: 13px;&quot;&gt;운영체제 : IBM AIX 6.1&amp;nbsp;&lt;/font&gt;&lt;/li&gt;&lt;li style=&quot;border-color: var(--border-color);&quot;&gt;&lt;font style=&quot;border-color: var(--border-color); font-size: 13px;&quot;&gt;CPU : 4.2Ghz, MEM : 8G&lt;/font&gt;&lt;/li&gt;&lt;/ul&gt;" placeholders="1" name="Variable" id="zOI9WWHMZoX-61sYecG0-43">
          <mxCell style="text;html=1;strokeColor=none;fillColor=none;align=left;verticalAlign=middle;whiteSpace=wrap;overflow=hidden;fontSize=20;fontFamily=Architects Daughter;" vertex="1" parent="zOI9WWHMZoX-61sYecG0-41">
            <mxGeometry width="200" height="100" as="geometry" />
          </mxCell>
        </UserObject>
        <mxCell id="zOI9WWHMZoX-61sYecG0-44" value="" style="group" vertex="1" connectable="0" parent="1">
          <mxGeometry x="627" y="440" width="210" height="110" as="geometry" />
        </mxCell>
        <mxCell id="zOI9WWHMZoX-61sYecG0-45" value="" style="text;html=1;strokeColor=#d6b656;fillColor=#fff2cc;align=center;verticalAlign=middle;whiteSpace=wrap;overflow=hidden;fontSize=20;fontFamily=Architects Daughter;" vertex="1" parent="zOI9WWHMZoX-61sYecG0-44">
          <mxGeometry x="20" y="10" width="170" height="100" as="geometry" />
        </mxCell>
        <UserObject label="&lt;ul&gt;&lt;li style=&quot;border-color: var(--border-color);&quot;&gt;&lt;font style=&quot;border-color: var(--border-color); font-size: 13px;&quot;&gt;기종: IBM 9409 Model M50&lt;/font&gt;&lt;/li&gt;&lt;li style=&quot;border-color: var(--border-color);&quot;&gt;&lt;font style=&quot;border-color: var(--border-color); font-size: 13px;&quot;&gt;운영체제 : IBM AIX 6.1&amp;nbsp;&lt;/font&gt;&lt;/li&gt;&lt;li style=&quot;border-color: var(--border-color);&quot;&gt;&lt;font style=&quot;border-color: var(--border-color); font-size: 13px;&quot;&gt;CPU : 4.2Ghz, MEM : 8G&lt;/font&gt;&lt;/li&gt;&lt;/ul&gt;" placeholders="1" name="Variable" id="zOI9WWHMZoX-61sYecG0-46">
          <mxCell style="text;html=1;strokeColor=none;fillColor=none;align=left;verticalAlign=middle;whiteSpace=wrap;overflow=hidden;fontSize=20;fontFamily=Architects Daughter;" vertex="1" parent="zOI9WWHMZoX-61sYecG0-44">
            <mxGeometry width="210" height="100" as="geometry" />
          </mxCell>
        </UserObject>
        <mxCell id="zOI9WWHMZoX-61sYecG0-50" value="" style="endArrow=none;dashed=1;html=1;dashPattern=1 3;strokeWidth=2;rounded=0;sketch=1;hachureGap=4;jiggle=2;curveFitting=1;fontFamily=Architects Daughter;fontSource=https%3A%2F%2Ffonts.googleapis.com%2Fcss%3Ffamily%3DArchitects%2BDaughter;fontSize=16;exitX=1;exitY=0.5;exitDx=0;exitDy=0;exitPerimeter=0;" edge="1" parent="1" source="zOI9WWHMZoX-61sYecG0-1" target="zOI9WWHMZoX-61sYecG0-32">
          <mxGeometry width="50" height="50" relative="1" as="geometry">
            <mxPoint x="410" y="460" as="sourcePoint" />
            <mxPoint x="460" y="410" as="targetPoint" />
          </mxGeometry>
        </mxCell>
        <mxCell id="zOI9WWHMZoX-61sYecG0-53" value="" style="endArrow=none;dashed=1;html=1;dashPattern=1 3;strokeWidth=2;rounded=0;sketch=1;hachureGap=4;jiggle=2;curveFitting=1;fontFamily=Architects Daughter;fontSource=https%3A%2F%2Ffonts.googleapis.com%2Fcss%3Ffamily%3DArchitects%2BDaughter;fontSize=16;exitX=1;exitY=0.5;exitDx=0;exitDy=0;exitPerimeter=0;" edge="1" parent="1" source="zOI9WWHMZoX-61sYecG0-2" target="zOI9WWHMZoX-61sYecG0-40">
          <mxGeometry width="50" height="50" relative="1" as="geometry">
            <mxPoint x="400" y="135" as="sourcePoint" />
            <mxPoint x="637" y="139" as="targetPoint" />
          </mxGeometry>
        </mxCell>
        <mxCell id="zOI9WWHMZoX-61sYecG0-54" value="" style="endArrow=none;dashed=1;html=1;dashPattern=1 3;strokeWidth=2;rounded=0;sketch=1;hachureGap=4;jiggle=2;curveFitting=1;fontFamily=Architects Daughter;fontSource=https%3A%2F%2Ffonts.googleapis.com%2Fcss%3Ffamily%3DArchitects%2BDaughter;fontSize=16;" edge="1" parent="1" source="zOI9WWHMZoX-61sYecG0-28" target="zOI9WWHMZoX-61sYecG0-43">
          <mxGeometry width="50" height="50" relative="1" as="geometry">
            <mxPoint x="393" y="255" as="sourcePoint" />
            <mxPoint x="637" y="259" as="targetPoint" />
          </mxGeometry>
        </mxCell>
        <mxCell id="zOI9WWHMZoX-61sYecG0-55" value="" style="endArrow=none;dashed=1;html=1;dashPattern=1 3;strokeWidth=2;rounded=0;sketch=1;hachureGap=4;jiggle=2;curveFitting=1;fontFamily=Architects Daughter;fontSource=https%3A%2F%2Ffonts.googleapis.com%2Fcss%3Ffamily%3DArchitects%2BDaughter;fontSize=16;exitX=0.88;exitY=0.5;exitDx=0;exitDy=0;exitPerimeter=0;" edge="1" parent="1" source="zOI9WWHMZoX-61sYecG0-31" target="zOI9WWHMZoX-61sYecG0-46">
          <mxGeometry width="50" height="50" relative="1" as="geometry">
            <mxPoint x="559" y="412" as="sourcePoint" />
            <mxPoint x="637" y="398" as="targetPoint" />
          </mxGeometry>
        </mxCell>
        <mxCell id="zOI9WWHMZoX-61sYecG0-56" value="" style="endArrow=none;dashed=1;html=1;dashPattern=1 3;strokeWidth=2;rounded=0;sketch=1;hachureGap=4;jiggle=2;curveFitting=1;fontFamily=Architects Daughter;fontSource=https%3A%2F%2Ffonts.googleapis.com%2Fcss%3Ffamily%3DArchitects%2BDaughter;fontSize=16;exitX=1;exitY=0.5;exitDx=0;exitDy=0;exitPerimeter=0;" edge="1" parent="1" source="zOI9WWHMZoX-61sYecG0-29" target="zOI9WWHMZoX-61sYecG0-49">
          <mxGeometry width="50" height="50" relative="1" as="geometry">
            <mxPoint x="544" y="525" as="sourcePoint" />
            <mxPoint x="637" y="513" as="targetPoint" />
          </mxGeometry>
        </mxCell>
        <mxCell id="zOI9WWHMZoX-61sYecG0-48" value="" style="text;html=1;strokeColor=#d6b656;fillColor=#fff2cc;align=center;verticalAlign=middle;whiteSpace=wrap;overflow=hidden;fontSize=20;fontFamily=Architects Daughter;" vertex="1" parent="1">
          <mxGeometry x="647" y="575" width="170" height="100" as="geometry" />
        </mxCell>
        <UserObject label="&lt;ul&gt;&lt;li style=&quot;border-color: var(--border-color);&quot;&gt;&lt;font style=&quot;border-color: var(--border-color); font-size: 13px;&quot;&gt;기종 : IBM 9110-51A&lt;/font&gt;&lt;/li&gt;&lt;li style=&quot;border-color: var(--border-color);&quot;&gt;&lt;font style=&quot;border-color: var(--border-color); font-size: 13px;&quot;&gt;DBMS : Oracle 10g&lt;/font&gt;&lt;/li&gt;&lt;li style=&quot;border-color: var(--border-color);&quot;&gt;&lt;font style=&quot;border-color: var(--border-color); font-size: 13px;&quot;&gt;운영체제 : IBM AIX 6.1&lt;br&gt;&lt;/font&gt;&lt;/li&gt;&lt;li style=&quot;border-color: var(--border-color);&quot;&gt;&lt;font style=&quot;border-color: var(--border-color); font-size: 13px;&quot;&gt;CPU : 4.2Ghz, MEM : 8G&lt;/font&gt;&lt;/li&gt;&lt;/ul&gt;" placeholders="1" name="Variable" id="zOI9WWHMZoX-61sYecG0-49">
          <mxCell style="text;html=1;strokeColor=none;fillColor=none;align=left;verticalAlign=middle;whiteSpace=wrap;overflow=hidden;fontSize=20;fontFamily=Architects Daughter;" vertex="1" parent="1">
            <mxGeometry x="629" y="555" width="200" height="120" as="geometry" />
          </mxCell>
        </UserObject>
        <mxCell id="zOI9WWHMZoX-61sYecG0-57" value="&lt;h1&gt;&lt;span style=&quot;background-color: initial;&quot;&gt;&lt;font style=&quot;font-size: 72px;&quot;&gt;&amp;nbsp;&lt;/font&gt;&lt;font style=&quot;font-size: 48px;&quot;&gt;2&lt;/font&gt;&lt;font style=&quot;font-size: 72px;&quot;&gt; &lt;/font&gt;&lt;font style=&quot;font-size: 36px;&quot;&gt;안 서버 이중화 아키텍처 다이어그램&lt;/font&gt;&lt;/span&gt;&lt;br&gt;&lt;/h1&gt;" style="text;html=1;strokeColor=none;fillColor=none;spacing=5;spacingTop=-20;whiteSpace=wrap;overflow=hidden;rounded=0;fontSize=20;fontFamily=Architects Daughter;" vertex="1" parent="1">
          <mxGeometry x="10" y="-20" width="840" height="120" as="geometry" />
        </mxCell>
      </root>
    </mxGraphModel>
  </diagram>
</mxfile>
